<svg xmlns="http://www.w3.org/2000/svg" width="23.97" height="24"><path d="M18.96 14.861a2.367 2.367 0 00-1.71-.786 2.442 2.442 0 00-1.74.781l-1.61 1.6a8.996 8.996 0 00-.39-.2c-.18-.092-.35-.178-.5-.269a17.487 17.487 0 01-4.18-3.8 10.476 10.476 0 01-1.37-2.159c.42-.38.8-.776 1.18-1.156.14-.142.28-.289.43-.431a2.332 2.332 0 000-3.508L7.68 3.55c-.16-.157-.32-.32-.47-.482-.31-.314-.63-.639-.96-.943a2.4 2.4 0 00-1.7-.745 2.48 2.48 0 00-1.72.745c-.01 0-.01 0-.01.01L1.09 3.874a3.7 3.7 0 00-1.1 2.357 8.981 8.981 0 00.65 3.761 21.811 21.811 0 003.88 6.468 23.93 23.93 0 007.96 6.22 12.4 12.4 0 004.47 1.318c.1 0 .21.01.32.01a3.811 3.811 0 002.92-1.257.044.044 0 00.02-.025 12.517 12.517 0 01.89-.918q.33-.312.66-.654a2.5 2.5 0 00.77-1.754 2.443 2.443 0 00-.78-1.738zm1.82 5.337c-.01 0-.01 0 0 0-.2.213-.4.406-.62.619a12.444 12.444 0 00-.98 1.014 2.451 2.451 0 01-1.91.805h-.23a11 11 0 01-3.96-1.186 22.55 22.55 0 01-7.5-5.859 20.658 20.658 0 01-3.65-6.078 7.207 7.207 0 01-.57-3.173 2.33 2.33 0 01.7-1.506l1.73-1.728a1.173 1.173 0 01.77-.36 1.126 1.126 0 01.75.355s.01.01.01.015c.31.289.6.588.91.907.16.163.32.325.49.492L8.1 5.899a.964.964 0 010 1.571c-.14.147-.29.294-.43.436-.43.436-.84.842-1.28 1.237a.044.044 0 00-.02.025 1.034 1.034 0 00-.27 1.151c.01.015.01.03.02.046a11.156 11.156 0 001.64 2.671 18.633 18.633 0 004.51 4.1c.21.131.42.238.62.339s.36.178.51.269c.02.01.04.025.06.035a1.031 1.031 0 001.27-.223l1.74-1.733a1.146 1.146 0 01.76-.38 1.047 1.047 0 01.74.37l.01.01 2.79 2.793a1 1 0 01.01 1.584zm-7.83-14.5a6.538 6.538 0 015.32 5.312.689.689 0 00.68.568.818.818 0 00.11-.01.688.688 0 00.57-.791 7.9 7.9 0 00-6.44-6.427.681.681 0 00-.79.557.669.669 0 00.55.793zm11.03 4.882A13 13 0 0013.38-.005a.684.684 0 10-.23 1.349 11.627 11.627 0 019.48 9.458.671.671 0 00.67.568.971.971 0 00.12-.01.677.677 0 00.56-.782z" fill="#b6907e" fill-rule="evenodd"/></svg>