<svg xmlns="http://www.w3.org/2000/svg" viewBox="0 0 97.623 97.623"><path d="M78.617 65.562H44.543c-4.919 0-10.185-3.585-11.987-8.163l-13.77-34.953c-.727-1.846-3.289-3.59-5.273-3.59H3.609a3.608 3.608 0 110-7.217h9.905c4.92 0 10.185 3.585 11.987 8.163l13.77 34.953c.727 1.846 3.289 3.59 5.272 3.59h34.074c1.935 0 4.375-1.725 5.02-3.548l6.638-18.758c.186-.525.139-.845.088-.918-.052-.073-.338-.223-.895-.223H42.474a3.61 3.61 0 010-7.218h46.994c2.843 0 5.317 1.194 6.789 3.275 1.471 2.081 1.771 4.811.822 7.491l-6.638 18.758c-1.658 4.686-6.852 8.358-11.824 8.358z"/><circle cx="35.267" cy="77.964" r="8.02"/><circle cx="86.689" cy="77.964" r="8.02"/><path d="M78.489 43.552H46.612a1.804 1.804 0 110-3.608h31.877a1.804 1.804 0 110 3.608zm-2.438 9.022H49.864a1.804 1.804 0 010-3.608h26.188a1.804 1.804 0 11-.001 3.608z"/></svg>